<svg width="82" height="17" viewBox="0 0 82 17" fill="none" xmlns="http://www.w3.org/2000/svg">
<g clip-path="url(#clip0_1382_5)">
<path d="M0 8.03777V6.77314C1.90377 5.14086 3.44468 3.88866 4.62275 3.01655C4.70475 2.95436 4.81613 2.93639 4.9569 2.96265C5.08947 2.98753 5.1619 3.00066 5.1742 3.00204C7.78043 3.30749 9.45392 4.72139 10.1946 7.24375C10.2917 7.57545 10.2398 7.94586 10.0389 8.35496C10.0226 8.38912 10.0142 8.42597 10.0142 8.46277L10.0122 10.934C10.0109 10.9967 10.0336 11.0582 10.0758 11.1061C10.1496 11.189 10.2049 11.2837 10.2418 11.3901C10.2678 11.4647 10.265 11.5387 10.2336 11.6119C9.8564 12.4702 9.20655 13.0417 8.28405 13.3264C8.24762 13.3379 8.2089 13.3397 8.17158 13.3317C8.13426 13.3237 8.09958 13.3062 8.07085 13.2808L7.7408 12.9864C7.67793 12.9298 7.60482 12.9014 7.52145 12.9014L6.1541 12.8973C5.7441 12.8959 5.53363 13.1025 5.5227 13.5172C5.51997 13.607 5.51723 13.6968 5.5145 13.7867C5.5022 14.2013 5.70173 14.4086 6.1131 14.4086L7.5358 14.4107C7.57036 14.4106 7.60419 14.399 7.63215 14.3775C8.02575 14.0942 8.47402 13.8461 8.97695 13.6333C9.94728 13.2214 10.576 12.4799 10.863 11.4087C10.8807 11.3383 10.9238 11.292 10.9921 11.2698C11.4062 11.1302 11.6126 10.8207 11.6112 10.3411C11.6112 9.77163 11.6057 9.21188 11.5948 8.66179C11.593 8.55218 11.5567 8.44586 11.4912 8.358C11.4257 8.27014 11.3342 8.20523 11.2299 8.17253C11.0515 8.11655 10.8875 7.99423 10.8568 7.79521C10.496 5.39724 9.19972 3.76151 6.96795 2.88801C6.50875 2.70834 6.01402 2.55216 5.48375 2.41948C5.4655 2.41452 5.44905 2.40418 5.43653 2.3898C5.42402 2.37542 5.41602 2.35768 5.41358 2.33888C5.41115 2.32007 5.41439 2.30109 5.42289 2.28441C5.43138 2.26772 5.44473 2.2541 5.4612 2.24533C6.7445 1.55497 8.06675 -0.499547 9.72725 0.821063C12.0328 2.65651 14.3684 4.52029 16.7341 6.4124C17.1339 6.73375 17.1441 7.20228 17.1298 7.68118C17.1072 8.41509 16.5722 8.82557 15.8445 8.58509C15.7639 8.55777 15.6915 8.51042 15.6338 8.44738C15.5762 8.38434 15.5351 8.30765 15.5144 8.22435C15.4201 7.84013 15.2882 7.53814 15.1187 7.31838C14.9124 7.0544 14.8092 7.09033 14.8092 7.42618L14.7969 15.5344C14.7969 15.9987 14.5673 16.2309 14.1081 16.2309L2.6281 16.2289C2.51054 16.229 2.39632 16.1893 2.30376 16.116C2.2112 16.0427 2.14566 15.9401 2.11765 15.8246C2.07255 15.6422 2.05 15.3948 2.05 15.0824C2.0582 12.7439 2.04863 10.3086 2.0213 7.77655C2.01993 7.63834 1.9926 7.53399 1.9393 7.4635C1.92615 7.44627 1.90832 7.43328 1.88798 7.42614C1.86765 7.41899 1.84569 7.418 1.82481 7.42328C1.80392 7.42856 1.78501 7.43989 1.7704 7.45587C1.75578 7.47185 1.74608 7.49179 1.7425 7.51326L1.6482 8.08545C1.63753 8.15169 1.60753 8.21308 1.5621 8.26167C0.956667 8.90712 0.435967 8.83249 0 8.03777Z" fill="#00A89D"/>
<path d="M28.2483 16.2184C27.6526 16.2162 27.0631 16.0862 26.5136 15.8357C25.964 15.5852 25.4651 15.219 25.0455 14.7582C24.6258 14.2974 24.2935 13.7509 24.0676 13.15C23.8417 12.549 23.7265 11.9054 23.7288 11.2558C23.731 10.6062 23.8506 9.96337 24.0807 9.36403C24.3107 8.76469 24.6468 8.22056 25.0696 7.76271C25.4925 7.30487 25.9938 6.94227 26.5451 6.69563C27.0964 6.44898 27.6867 6.32312 28.2825 6.32522C28.8783 6.32732 29.4677 6.45735 30.0173 6.70788C30.5668 6.95841 31.0657 7.32454 31.4854 7.78536C31.9051 8.24617 32.2373 8.79266 32.4633 9.39361C32.6892 9.99455 32.8043 10.6382 32.8021 11.2878C32.7998 11.9374 32.6803 12.5802 32.4502 13.1795C32.2201 13.7789 31.8841 14.323 31.4612 14.7809C31.0384 15.2387 30.537 15.6013 29.9857 15.8479C29.4345 16.0946 28.8441 16.2205 28.2483 16.2184ZM28.2563 15.3414C28.7266 15.3423 29.1925 15.2378 29.6274 15.0341C30.0623 14.8303 30.4576 14.5312 30.7908 14.1539C31.124 13.7766 31.3886 13.3284 31.5694 12.835C31.7503 12.3416 31.8438 11.8125 31.8447 11.2781C31.8456 10.7437 31.7539 10.2143 31.5748 9.72025C31.3957 9.22618 31.1326 8.77708 30.8007 8.39859C30.4688 8.0201 30.0745 7.71964 29.6404 7.51435C29.2062 7.30907 28.7407 7.20298 28.2704 7.20215C27.8001 7.20132 27.3342 7.30576 26.8993 7.50951C26.4645 7.71326 26.0692 8.01233 25.7359 8.38964C25.4027 8.76696 25.1382 9.21513 24.9573 9.70856C24.7765 10.202 24.6829 10.731 24.682 11.2655C24.6811 11.7999 24.7728 12.3293 24.9519 12.8233C25.1311 13.3174 25.3941 13.7665 25.726 14.145C26.0579 14.5235 26.4522 14.8239 26.8864 15.0292C27.3205 15.2345 27.786 15.3406 28.2563 15.3414Z" fill="#FEFEFE"/>
<path d="M57.4263 16.2221C56.2101 16.2071 55.0501 15.6709 54.2013 14.7315C53.3526 13.7921 52.8847 12.5265 52.9006 11.213C52.9165 9.89952 53.4148 8.64582 54.286 7.72769C55.1571 6.80955 56.3298 6.30219 57.5459 6.31722C58.7621 6.33225 59.9221 6.86844 60.7709 7.80782C61.6196 8.74721 62.0875 10.0128 62.0716 11.3263C62.0557 12.6398 61.5574 13.8935 60.6862 14.8116C59.8151 15.7297 58.6424 16.2371 57.4263 16.2221ZM57.4677 14.8292C57.8648 14.8313 58.2584 14.7415 58.6262 14.5647C58.994 14.388 59.3287 14.1279 59.6112 13.7992C59.8937 13.4705 60.1184 13.0798 60.2726 12.6492C60.4268 12.2186 60.5074 11.7567 60.5098 11.2898C60.5122 10.8229 60.4364 10.3601 60.2867 9.92798C60.137 9.49581 59.9163 9.10268 59.6372 8.77104C59.3581 8.4394 59.0262 8.17574 58.6602 7.99512C58.2943 7.8145 57.9016 7.72045 57.5045 7.71835C57.1074 7.71625 56.7138 7.80613 56.346 7.98287C55.9782 8.1596 55.6435 8.41973 55.361 8.7484C55.0785 9.07707 54.8538 9.46784 54.6996 9.8984C54.5454 10.329 54.4648 10.7909 54.4624 11.2578C54.46 11.7247 54.5358 12.1874 54.6855 12.6196C54.8352 13.0518 55.0559 13.4449 55.335 13.7766C55.6141 14.1082 55.946 14.3719 56.312 14.5525C56.6779 14.7331 57.0706 14.8271 57.4677 14.8292Z" fill="#00A89D"/>
<path d="M65.11 9.56775C65.0752 9.74604 65.1428 9.99067 65.1408 10.1856C65.1244 12.1564 65.1182 14.0866 65.1223 15.9759C65.1237 16.0713 65.0772 16.1203 64.9829 16.1231L63.716 16.1604C63.6163 16.1632 63.5664 16.1141 63.5664 16.0132L63.5643 6.62592C63.5643 6.42274 63.6634 6.33222 63.8616 6.35433C64.2005 6.39303 64.549 6.40201 64.9071 6.38128C64.997 6.37566 65.0867 6.39629 65.1655 6.44075C65.2443 6.4852 65.309 6.55162 65.3519 6.63214L68.2506 12.0182C68.3627 12.2269 68.4748 12.2269 68.5868 12.0182L71.5163 6.57616C71.5455 6.52148 71.5885 6.47572 71.6408 6.44364C71.6931 6.41156 71.7527 6.39432 71.8135 6.39372L73.1255 6.37921C73.1443 6.37893 73.1629 6.38243 73.1803 6.3895C73.1977 6.39656 73.2135 6.40706 73.2269 6.42037C73.2402 6.43368 73.2508 6.44954 73.2581 6.46703C73.2653 6.48452 73.269 6.5033 73.269 6.52226L73.2772 16.0236C73.2772 16.0913 73.2437 16.1252 73.1768 16.1252L71.8176 16.1521C71.7452 16.1535 71.7097 16.1183 71.711 16.0464C71.7384 13.8005 71.7308 11.6741 71.6885 9.66726C71.6803 9.29685 71.5908 9.27543 71.4199 9.60299C71.4145 9.61543 71.37 9.70181 71.2867 9.86214C70.5787 11.2277 69.8619 12.5877 69.1362 13.9421C69.0132 14.1702 68.841 14.4521 68.5581 14.4729C68.1987 14.4964 67.9411 14.3651 67.7853 14.079C66.968 12.5808 66.1501 11.0653 65.3314 9.5325C65.2276 9.33762 65.1538 9.34937 65.11 9.56775Z" fill="#00A89D"/>
<path d="M17.2323 15.0575C18.5115 15.5343 20.2807 15.752 20.8075 14.251C20.9975 13.7078 21.0979 13.1688 21.1089 12.6339C21.1403 10.9795 21.1533 8.97547 21.1478 6.62173C21.1478 6.46417 21.2257 6.3847 21.3815 6.38331L21.8325 6.37917C21.9979 6.37779 22.0813 6.46071 22.0826 6.62795C22.1018 8.40535 22.1024 10.2387 22.0847 12.1281C22.0662 13.9649 21.7587 15.9551 19.598 16.2558C18.7261 16.376 17.9075 16.2585 17.1421 15.9033C16.8797 15.7817 16.7909 15.5813 16.8756 15.3021L16.9002 15.2233C16.9535 15.0492 17.0642 14.9939 17.2323 15.0575Z" fill="#FEFEFE"/>
<path d="M40.3153 10.9234C40.2966 10.9334 40.2806 10.9479 40.2687 10.9657C40.2568 10.9834 40.2494 11.0038 40.2472 11.0251C40.245 11.0464 40.248 11.068 40.2559 11.0878C40.2639 11.1077 40.2765 11.1253 40.2927 11.139C40.6371 11.4272 41.0676 11.6615 41.3218 12.0284C42.5826 13.8611 41.3956 16.1001 39.196 16.1333C37.7719 16.1554 36.2577 16.1533 34.6532 16.1271C34.5767 16.1257 34.5384 16.0863 34.5384 16.0089L34.5466 6.52C34.5466 6.43431 34.589 6.39147 34.6737 6.39147C36.2536 6.38594 37.7753 6.38939 39.239 6.40183C41.5104 6.42049 42.2566 9.91171 40.3153 10.9234ZM35.5224 7.35549L35.4978 10.6726C35.4978 10.71 35.5125 10.7458 35.5386 10.7723C35.5648 10.7987 35.6002 10.8135 35.6372 10.8135L38.7511 10.8363C38.9777 10.838 39.2023 10.7934 39.4123 10.7053C39.6222 10.6172 39.8132 10.4872 39.9745 10.3227C40.1357 10.1583 40.264 9.96266 40.3521 9.747C40.4401 9.53134 40.4861 9.29988 40.4875 9.06586V9.02854C40.4903 8.55654 40.3116 8.10275 39.9906 7.76688C39.6696 7.43101 39.2327 7.24054 38.7757 7.23732L35.6618 7.21452C35.6248 7.21452 35.5894 7.22937 35.5632 7.25581C35.5371 7.28225 35.5224 7.3181 35.5224 7.35549ZM35.5142 11.7589L35.5019 15.1133C35.5016 15.1353 35.5057 15.157 35.5138 15.1774C35.5219 15.1978 35.5339 15.2163 35.5492 15.2319C35.5645 15.2475 35.5826 15.2599 35.6027 15.2684C35.6227 15.2769 35.6442 15.2812 35.6659 15.2812L39.0709 15.2937C39.5467 15.2953 40.0036 15.1047 40.3411 14.7637C40.6787 14.4227 40.8692 13.9593 40.8708 13.4755V13.4382C40.8717 13.1986 40.8261 12.9612 40.7367 12.7395C40.6473 12.5179 40.5158 12.3163 40.3498 12.1463C40.1838 11.9763 39.9865 11.8412 39.7692 11.7488C39.5519 11.6564 39.3188 11.6084 39.0832 11.6076L35.6782 11.5951C35.635 11.5951 35.5936 11.6123 35.5629 11.643C35.5322 11.6736 35.5147 11.7153 35.5142 11.7589Z" fill="#FEFEFE"/>
<path d="M49.8499 10.3203L49.856 6.53257C49.856 6.51334 49.8598 6.4943 49.8671 6.47655C49.8745 6.45881 49.8852 6.44272 49.8988 6.42922C49.9123 6.41571 49.9284 6.40507 49.946 6.3979C49.9637 6.39073 49.9825 6.38718 50.0016 6.38745L51.2685 6.39782C51.3062 6.39836 51.3421 6.41389 51.3686 6.44105C51.3951 6.4682 51.4099 6.50481 51.4099 6.54294L51.4181 15.9904C51.4181 16.0289 51.403 16.0658 51.3761 16.093C51.3492 16.1202 51.3127 16.1355 51.2746 16.1355L49.9852 16.1396C49.9663 16.1396 49.9476 16.1359 49.9302 16.1286C49.9128 16.1213 49.897 16.1106 49.8837 16.0971C49.8704 16.0837 49.8598 16.0677 49.8526 16.0501C49.8454 16.0325 49.8417 16.0136 49.8417 15.9945L49.8437 11.9912C49.8437 11.9527 49.8286 11.9158 49.8017 11.8886C49.7748 11.8614 49.7383 11.8461 49.7002 11.8461L45.1062 11.8399C45.0681 11.8399 45.0316 11.8552 45.0047 11.8824C44.9778 11.9096 44.9627 11.9465 44.9627 11.985L44.975 15.9842C44.975 16.0223 44.9601 16.0589 44.9337 16.086C44.9072 16.1132 44.8712 16.1287 44.8335 16.1293L43.5892 16.1542C43.5701 16.1544 43.5513 16.1509 43.5336 16.1437C43.516 16.1365 43.4999 16.1259 43.4864 16.1124C43.4728 16.0989 43.4621 16.0828 43.4547 16.0651C43.4474 16.0473 43.4436 16.0283 43.4436 16.009L43.4518 6.51599C43.4518 6.49675 43.4556 6.47771 43.4629 6.45997C43.4703 6.44222 43.481 6.42613 43.4946 6.41263C43.5081 6.39913 43.5242 6.38848 43.5418 6.38131C43.5595 6.37414 43.5783 6.37059 43.5974 6.37086L44.8335 6.39367C44.8712 6.39421 44.9072 6.40974 44.9337 6.4369C44.9601 6.46406 44.975 6.50066 44.975 6.53879L44.9647 10.3203C44.9647 10.3587 44.9798 10.3957 45.0067 10.4229C45.0336 10.4501 45.0701 10.4654 45.1082 10.4654H49.7064C49.7444 10.4654 49.7809 10.4501 49.8078 10.4229C49.8347 10.3957 49.8499 10.3587 49.8499 10.3203Z" fill="#00A89D"/>
<path d="M82 15.0575V16.1231L75.5323 16.1542C75.5072 16.1542 75.4824 16.1492 75.4593 16.1395C75.4362 16.1298 75.4152 16.1156 75.3975 16.0977C75.3798 16.0798 75.3657 16.0585 75.3561 16.0351C75.3465 16.0117 75.3416 15.9867 75.3416 15.9614L75.3478 6.56989C75.3483 6.52132 75.3675 6.47492 75.4013 6.44077C75.4351 6.40661 75.4807 6.38745 75.5282 6.38745L81.7909 6.39367C81.8429 6.39505 81.8688 6.422 81.8688 6.47452L81.8586 7.66245C81.8586 7.73294 81.823 7.76818 81.752 7.76818L77.0903 7.75989C77.0629 7.75962 77.0358 7.76488 77.0104 7.77539C76.985 7.78589 76.962 7.80143 76.9425 7.82109C76.9231 7.84075 76.9077 7.86416 76.8971 7.88995C76.8866 7.91574 76.8812 7.94341 76.8812 7.97135L76.875 10.3161C76.875 10.3722 76.8968 10.426 76.9357 10.4656C76.9745 10.5053 77.0272 10.5276 77.0821 10.5276L81.0857 10.5151C81.165 10.5151 81.2039 10.5545 81.2026 10.6333L81.1923 11.6823C81.1909 11.7735 81.1458 11.8185 81.057 11.8171L77.0493 11.8026C77.0275 11.8023 77.0058 11.8064 76.9856 11.8147C76.9653 11.823 76.9469 11.8353 76.9313 11.8509C76.9156 11.8665 76.9032 11.8851 76.8946 11.9056C76.886 11.9261 76.8814 11.9482 76.8812 11.9705L76.875 14.62C76.875 14.6623 76.8916 14.703 76.9212 14.7329C76.9509 14.7628 76.991 14.7796 77.0329 14.7796L81.8114 14.7631C81.8715 14.7631 81.9112 14.7914 81.9303 14.8481L82 15.0575Z" fill="#00A89D"/>
</g>
<defs>
<clipPath id="clip0_1382_5">
<rect width="82" height="17" fill="white"/>
</clipPath>
</defs>
</svg>
